<?xml version="1.0" ?><svg width="20px" height="20px" viewBox="0 0 20 20" version="1.1" xmlns="http://www.w3.org/2000/svg"><g id="layer1"><path d="M 3 0 L 3 20 L 17 20 L 17 19 L 16 19 L 4 19 L 4 1 L 12 1 L 12 4 L 12 5 L 16 5 L 16 12 L 17 12 L 17 5 L 17 4 L 13 0 L 12 0 L 3 0 z M 13 1.3535156 L 15.646484 4 L 13 4 L 13 1.3535156 z M 5 13 L 5 18 L 6 18 L 6 16 L 7.5 16 L 7.65625 15.992188 L 7.8125 15.966797 L 7.9628906 15.925781 L 8.109375 15.869141 L 8.25 15.798828 L 8.3828125 15.712891 L 8.5039062 15.615234 L 8.6152344 15.503906 L 8.7128906 15.380859 L 8.7988281 15.25 L 8.8691406 15.109375 L 8.9257812 14.962891 L 8.9667969 14.8125 L 8.9921875 14.65625 L 9 14.5 L 8.9921875 14.34375 L 8.9667969 14.1875 L 8.9257812 14.037109 L 8.8691406 13.890625 L 8.7988281 13.75 L 8.7128906 13.617188 L 8.6152344 13.496094 L 8.5039062 13.384766 L 8.3828125 13.287109 L 8.25 13.201172 L 8.109375 13.128906 L 7.9628906 13.072266 L 7.8125 13.033203 L 7.65625 13.007812 L 7.5 13 L 5 13 z M 10 13 L 10 18 L 11 18 L 11 16 L 13 16 L 13 18 L 14 18 L 14 13 L 13 13 L 13 15 L 11 15 L 11 13 L 10 13 z M 15 13 L 15 18 L 16 18 L 16 16 L 17.5 16 L 17.65625 15.992188 L 17.8125 15.966797 L 17.962891 15.925781 L 18.109375 15.869141 L 18.25 15.798828 L 18.382812 15.712891 L 18.503906 15.615234 L 18.615234 15.503906 L 18.712891 15.380859 L 18.798828 15.25 L 18.869141 15.109375 L 18.925781 14.962891 L 18.966797 14.8125 L 18.992188 14.65625 L 19 14.5 L 18.992188 14.34375 L 18.966797 14.1875 L 18.925781 14.037109 L 18.869141 13.890625 L 18.798828 13.75 L 18.712891 13.617188 L 18.615234 13.496094 L 18.503906 13.384766 L 18.382812 13.287109 L 18.25 13.201172 L 18.109375 13.128906 L 17.962891 13.072266 L 17.8125 13.033203 L 17.65625 13.007812 L 17.5 13 L 15 13 z M 6 14 L 7.5 14 L 7.5917969 14.007812 L 7.6796875 14.033203 L 7.7636719 14.074219 L 7.8359375 14.130859 L 7.8984375 14.199219 L 7.9472656 14.277344 L 7.9804688 14.363281 L 7.9980469 14.453125 L 7.9980469 14.546875 L 7.9804688 14.636719 L 7.9472656 14.722656 L 7.8984375 14.800781 L 7.8359375 14.869141 L 7.7636719 14.925781 L 7.6796875 14.964844 L 7.5917969 14.990234 L 7.5 15 L 6 15 L 6 14 z M 16 14 L 17.5 14 L 17.591797 14.007812 L 17.679688 14.033203 L 17.763672 14.074219 L 17.835938 14.130859 L 17.898438 14.199219 L 17.947266 14.277344 L 17.980469 14.363281 L 17.998047 14.453125 L 17.998047 14.546875 L 17.980469 14.636719 L 17.947266 14.722656 L 17.898438 14.800781 L 17.835938 14.869141 L 17.763672 14.925781 L 17.679688 14.964844 L 17.591797 14.990234 L 17.5 15 L 16 15 L 16 14 z " style="fill:#222222; fill-opacity:1; stroke:none; stroke-width:0px;"/></g></svg>